<svg xmlns="http://www.w3.org/2000/svg" width="1200" height="630" viewBox="0 0 1200 630">
  <defs>
    <linearGradient id="bg" x1="0" y1="0" x2="1" y2="1">
      <stop offset="0" stop-color="#06070b"/>
      <stop offset=".52" stop-color="#081827"/>
      <stop offset="1" stop-color="#07100d"/>
    </linearGradient>
    <linearGradient id="text" x1="0" y1="0" x2="1" y2="0">
      <stop offset="0" stop-color="#ffffff"/>
      <stop offset=".52" stop-color="#4ee4ff"/>
      <stop offset="1" stop-color="#8cf8b8"/>
    </linearGradient>
  </defs>
  <rect width="1200" height="630" fill="url(#bg)"/>
  <g opacity=".16" stroke="#9fb5c9" stroke-width="1">
    <path d="M0 90H1200M0 180H1200M0 270H1200M0 360H1200M0 450H1200M0 540H1200"/>
    <path d="M100 0V630M220 0V630M340 0V630M460 0V630M580 0V630M700 0V630M820 0V630M940 0V630M1060 0V630"/>
  </g>
  <circle cx="950" cy="130" r="190" fill="#4ee4ff" opacity=".12"/>
  <circle cx="1040" cy="490" r="220" fill="#8cf8b8" opacity=".10"/>
  <path d="M115 410C245 260 356 380 475 250s230-110 338 15 182 20 270-90" fill="none" stroke="#4ee4ff" stroke-width="4" opacity=".42"/>
  <text x="92" y="160" fill="#8cf8b8" font-family="Arial, sans-serif" font-size="28" font-weight="700" letter-spacing="7">AI SYSTEMS | RAG | MLOPS</text>
  <text x="88" y="285" fill="url(#text)" font-family="Arial, sans-serif" font-size="76" font-weight="800">Sai Girish Reddy</text>
  <text x="92" y="370" fill="#eef2ff" font-family="Arial, sans-serif" font-size="42" font-weight="700">Software Engineer for production AI platforms</text>
  <text x="92" y="455" fill="#a9b3c7" font-family="Arial, sans-serif" font-size="30">.NET backend | AWS and Azure | OCR automation | CI/CD</text>
  <g transform="translate(92 510)">
    <rect width="224" height="54" rx="27" fill="#ffffff"/>
    <text x="28" y="36" fill="#06070b" font-family="Arial, sans-serif" font-size="22" font-weight="700">View Portfolio</text>
  </g>
</svg>
